<svg width="19" height="24" viewBox="0 0 19 24" fill="none" xmlns="http://www.w3.org/2000/svg">
<path d="M9.5 0C10.0241 2.03352e-07 10.5482 0.221657 10.948 0.66497L18.5502 9.09321C19.1499 9.75817 19.1499 10.8363 18.5502 11.5013C17.9504 12.1662 16.9779 12.1662 16.3781 11.5013L11 5.53873L11 22.5C11 23.3284 10.3284 24 9.5 24C8.67157 24 8 23.3284 8 22.5L8 5.53873L2.62188 11.5013C2.02209 12.1662 1.04964 12.1662 0.449844 11.5013C-0.149948 10.8363 -0.149948 9.75817 0.449844 9.09321L8.05198 0.664969C8.45184 0.221656 8.97592 -2.03352e-07 9.5 0Z" fill="#1D1D1D"/>
</svg>
