<svg width="24" height="24" viewBox="0 0 24 24" fill="none">
<path d="M0.568224 3.31185C-0.189407 2.55422 -0.189407 1.32586 0.568224 0.568224C1.32586 -0.189408 2.55422 -0.189408 3.31185 0.568224L23.4318 20.6881C24.1894 21.4458 24.1894 22.6741 23.4318 23.4318C22.6741 24.1894 21.4458 24.1894 20.6882 23.4318L0.568224 3.31185Z" fill="#1D1D1D"/>
<path d="M20.6882 0.568224C21.4458 -0.189408 22.6741 -0.189407 23.4318 0.568224C24.1894 1.32586 24.1894 2.55422 23.4318 3.31185L3.31185 23.4318C2.55422 24.1894 1.32586 24.1894 0.568224 23.4318C-0.189408 22.6741 -0.189408 21.4458 0.568224 20.6881L20.6882 0.568224Z" fill="#1D1D1D"/>
</svg>
